<svg width="13" height="12" viewBox="0 0 13 12" fill="none" xmlns="http://www.w3.org/2000/svg">
<path d="M7.66235 8.14286C7.66235 8.37964 7.49454 8.57143 7.28735 8.57143H5.03735C4.83017 8.57143 4.66235 8.37964 4.66235 8.14286V6.85714H0.162354V10.7143C0.162354 11.4 0.687354 12 1.28735 12H11.0374C11.6374 12 12.1624 11.4 12.1624 10.7143V6.85714H7.66235V8.14286ZM11.0374 2.57143H9.16235V1.28571C9.16235 0.6 8.63735 0 8.03735 0H4.28735C3.68735 0 3.16235 0.6 3.16235 1.28571V2.57143H1.28735C0.687354 2.57143 0.162354 3.17143 0.162354 3.85714V6H12.1624V3.85714C12.1624 3.17143 11.6374 2.57143 11.0374 2.57143ZM7.66235 2.57143H4.66235V1.71429H7.66235V2.57143Z" fill="white"/>
</svg>
