<svg width="12" height="12" viewBox="0 0 12 12" fill="none" xmlns="http://www.w3.org/2000/svg">
<path d="M5.8409 3.11312L2.00016 7.18098V11.5714C2.00016 11.6851 2.03527 11.7941 2.09778 11.8745C2.16029 11.9548 2.24507 12 2.33347 12L4.66787 11.9922C4.75598 11.9917 4.84033 11.9463 4.90248 11.8659C4.96462 11.7856 4.99951 11.6769 4.99951 11.5636V8.99967C4.99951 8.88599 5.03463 8.77697 5.09713 8.69659C5.15964 8.6162 5.24442 8.57105 5.33282 8.57105H6.66605C6.75445 8.57105 6.83922 8.6162 6.90173 8.69659C6.96424 8.77697 6.99936 8.88599 6.99936 8.99967V11.5617C6.99922 11.6181 7.00774 11.674 7.02443 11.7262C7.04112 11.7783 7.06565 11.8257 7.09661 11.8657C7.12757 11.9056 7.16436 11.9373 7.20487 11.9589C7.24538 11.9806 7.28881 11.9917 7.33266 11.9917L9.66623 12C9.75463 12 9.83941 11.9548 9.90192 11.8745C9.96443 11.7941 9.99954 11.6851 9.99954 11.5714V7.17803L6.15963 3.11312C6.11449 3.06632 6.05825 3.0408 6.00027 3.0408C5.94228 3.0408 5.88605 3.06632 5.8409 3.11312ZM11.9077 5.87798L10.1662 4.03197V0.321464C10.1662 0.236207 10.1399 0.154441 10.093 0.0941548C10.0461 0.0338685 9.98251 0 9.91621 0H8.74964C8.68334 0 8.61975 0.0338685 8.57287 0.0941548C8.52599 0.154441 8.49966 0.236207 8.49966 0.321464V2.26659L6.63459 0.293336C6.45561 0.103935 6.23102 0.000378617 5.99922 0.000378617C5.76743 0.000378617 5.54284 0.103935 5.36386 0.293336L0.0907219 5.87798C0.0654088 5.90488 0.0444661 5.93794 0.0290906 5.97525C0.0137152 6.01257 0.00420817 6.05342 0.00111286 6.09546C-0.00198244 6.1375 0.00139461 6.17992 0.0110511 6.22028C0.0207075 6.26065 0.0364541 6.29817 0.0573911 6.33071L0.5886 7.16116C0.60948 7.19381 0.635163 7.22084 0.664177 7.24071C0.693192 7.26058 0.724969 7.27289 0.75769 7.27695C0.79041 7.281 0.823431 7.27672 0.854863 7.26434C0.886295 7.25197 0.91552 7.23174 0.940865 7.20482L5.8409 2.01478C5.88605 1.96799 5.94228 1.94247 6.00027 1.94247C6.05825 1.94247 6.11449 1.96799 6.15963 2.01478L11.0599 7.20482C11.0852 7.23175 11.1144 7.252 11.1457 7.26441C11.1771 7.27683 11.2101 7.28117 11.2428 7.27719C11.2755 7.27321 11.3073 7.26099 11.3363 7.24122C11.3653 7.22144 11.391 7.19451 11.4119 7.16196L11.9431 6.33151C11.9641 6.29879 11.9797 6.26107 11.9893 6.22053C11.9988 6.17999 12.002 6.13742 11.9987 6.09528C11.9955 6.05313 11.9857 6.01224 11.9701 5.97495C11.9545 5.93765 11.9333 5.9047 11.9077 5.87798Z" fill="#FFE4F2"/>
</svg>
